<?xml version="1.0" standalone="no"?><!DOCTYPE svg PUBLIC "-//W3C//DTD SVG 1.1//EN" "http://www.w3.org/Graphics/SVG/1.1/DTD/svg11.dtd"><svg t="1764057878468" class="icon" viewBox="0 0 1024 1024" version="1.1" xmlns="http://www.w3.org/2000/svg" p-id="5616" xmlns:xlink="http://www.w3.org/1999/xlink" width="200" height="200"><path d="M925.773 323.16v377.688c0 124.226-100.726 224.928-224.916 224.928H323.158c-124.226 0-224.928-100.702-224.928-224.928V323.16c0-124.226 100.702-224.928 224.928-224.928h377.7c124.189 0 224.915 100.702 224.915 224.928zM256.846 703.366V317.57H174.72v385.795h82.127z m355.64 0h98.96c28.908 0 50.616-1.44 65.053-4.332 14.472-2.892 27.892-8.386 40.21-16.481 27.771-17.74 41.663-44.918 41.663-81.56 0-39.714-17.171-70.752-51.476-93.126 34.305-20.051 51.476-48.004 51.476-83.87 0-20.825-5.784-40.295-17.365-58.422-11.544-19.664-27.383-33.168-47.41-40.49-8.483-3.085-16.312-5.009-23.427-5.783-7.115-0.775-23.427-1.356-48.899-1.743H612.486v68.829h94.349c13.492 0 23.04 0.484 28.63 1.452s10.48 2.989 14.75 6.075c11.545 7.708 17.33 20.05 17.33 37.016 0 15.428-4.418 26.803-13.3 34.124-7.32 6.171-23.112 9.257-47.41 9.257H648.92v68.248h57.914c20.027 0 34.112 2.31 42.207 6.945 12.718 7.321 19.095 20.632 19.095 39.909 0 15.815-5.01 27.759-15.017 35.866-8.095 6.559-23.548 9.838-46.273 9.838h-94.35v68.248zM378.18 635.117v-34.124c0.387-20.051 3.666-33.168 9.838-39.327 4.622-6.172 11.665-10.42 21.115-12.73 9.451-2.312 27.53-3.473 27.53-3.473 40.101 0 70.184-5.978 90.234-17.933 13.493-8.096 24.105-20.729 31.813-37.888 7.708-17.159 11.568-36.919 11.568-59.281 0-18.127-3.085-34.995-9.257-50.605-6.17-15.622-15.04-28.05-26.609-37.307-19.276-16.578-53.594-24.867-102.953-24.867H302.417v68.83h111.69c21.587 0 37.21 2.891 46.854 8.675 12.73 8.096 19.095 20.826 19.095 38.178 0 15.816-6.946 27.76-20.826 35.867-8.87 5.01-23.899 7.514-45.111 7.514 0 0-34.947 0.012-50.956 5.203-12.186 3.957-23.717 10.225-34.124 20.245-22.362 22.75-33.156 55.724-32.394 98.911v102.372h265.453v-68.248H378.18z" fill="#3C80FF" p-id="5617"></path></svg>