<?xml version="1.0" standalone="no"?><!DOCTYPE svg PUBLIC "-//W3C//DTD SVG 1.1//EN" "http://www.w3.org/Graphics/SVG/1.1/DTD/svg11.dtd"><svg t="1764057991415" class="icon" viewBox="0 0 1024 1024" version="1.1" xmlns="http://www.w3.org/2000/svg" p-id="5073" xmlns:xlink="http://www.w3.org/1999/xlink" width="200" height="200"><path d="M224 322.56C251.968 185.344 368.832 80 512 80s260.032 105.344 288 242.56c120.64 30.08 208 143.04 208 274.752 0 153.984-119.68 282.688-272 282.688a48 48 0 0 1 0-96c95.104 0 176-81.472 176-186.688 0-98.88-71.68-177.088-159.296-185.792l-39.808-3.968-3.2-39.872C700.672 258.368 613.76 176 512 176S323.328 258.368 314.368 367.68l-3.264 39.872-39.808 3.968C183.68 420.224 112 498.432 112 597.312c0 105.216 80.896 186.688 176 186.688a48 48 0 0 1 0 96c-152.32 0-272-128.64-272-282.688 0-131.712 87.36-244.608 208-274.752zM512 496a48 48 0 0 1 48 48h-96A48 48 0 0 1 512 496z m-48 48h-48.256a32 32 0 0 1-24.192-52.928l96.256-111.168a32 32 0 0 1 48.384 0l96.256 111.168a32 32 0 0 1-24.192 52.928H560v320a48 48 0 0 1-96 0v-320z" fill="#FF5800" p-id="5074"></path></svg>