<?xml version="1.0" standalone="no"?><!DOCTYPE svg PUBLIC "-//W3C//DTD SVG 1.1//EN" "http://www.w3.org/Graphics/SVG/1.1/DTD/svg11.dtd"><svg t="1764058319003" class="icon" viewBox="0 0 1024 1024" version="1.1" xmlns="http://www.w3.org/2000/svg" p-id="6751" xmlns:xlink="http://www.w3.org/1999/xlink" width="200" height="200"><path d="M511 493c-198.27 0-359 160.73-359 359h718c0-198.27-160.73-359-359-359z" fill="#FF9997" p-id="6752"></path><path d="M942.3 334.81a70.94 70.94 0 0 0-53.85-25A69.48 69.48 0 0 0 846 324.39L724.85 416.9a7.57 7.57 0 0 1-4.75 1.66 8.43 8.43 0 0 1-7.5-4.84L576.46 136.44a70.36 70.36 0 0 0-126.6 0L313.7 413.72a8.4 8.4 0 0 1-7.47 4.84 7.6 7.6 0 0 1-4.74-1.65L180.36 324.4a69.5 69.5 0 0 0-42.48-14.59 70.9 70.9 0 0 0-53.85 25c-13.69 16-19.41 36.47-16.11 57.65l68.26 436.27a71.61 71.61 0 0 0 23.71 43A70.26 70.26 0 0 0 206 889h614.38a70.26 70.26 0 0 0 46.06-17.26 71.62 71.62 0 0 0 23.71-43l14.94-95.46 17.51-111.93 35.82-228.9a70.58 70.58 0 0 0-16.12-57.64z m-811 40.5a9 9 0 0 1 6.54-3.23 7.5 7.5 0 0 1 4.67 1.8l121.2 92.52a70.24 70.24 0 0 0 105.88-25.23l136.17-277.28a7.87 7.87 0 0 1 7.39-4.81 8 8 0 0 1 7.42 4.83l136.15 277.3a70.3 70.3 0 0 0 63.38 39.62 69.58 69.58 0 0 0 42.53-14.43l121.17-92.53a7.47 7.47 0 0 1 4.65-1.79 9 9 0 0 1 6.55 3.23 8.86 8.86 0 0 1 1.89 7.53l-35.81 228.89-17.51 111.95-14.94 95.48a8.58 8.58 0 0 1-8.25 7.57H206a8.59 8.59 0 0 1-8.25-7.6l-68.31-436.28a8.71 8.71 0 0 1 1.9-7.54z" fill="#FF5C50" p-id="6753"></path><path d="M351 664m32 0l256 0q32 0 32 32l0 0q0 32-32 32l-256 0q-32 0-32-32l0 0q0-32 32-32Z" fill="#FF5C50" p-id="6754"></path></svg>