<?xml version="1.0" standalone="no"?><!DOCTYPE svg PUBLIC "-//W3C//DTD SVG 1.1//EN" "http://www.w3.org/Graphics/SVG/1.1/DTD/svg11.dtd"><svg t="1764063633770" class="icon" viewBox="0 0 1416 1024" version="1.1" xmlns="http://www.w3.org/2000/svg" p-id="13288" xmlns:xlink="http://www.w3.org/1999/xlink" width="276.5625" height="200"><path d="M1090.064516 1018.494624c-49.548387 0-99.096774-11.010753-137.634408-33.032258-22.021505-11.010753-27.526882-33.032258-16.51613-55.053764s33.032258-27.526882 55.053764-16.516129c33.032258 16.516129 66.064516 27.526882 99.096774 27.526882 121.11828 0 225.72043-93.591398 231.225807-220.215054-5.505376-121.11828-110.107527-214.709677-231.225807-214.709677h-22.021505c-88.086022 0-269.763441-5.505376-523.010753 209.204301-16.516129 16.516129-44.043011 11.010753-60.55914-5.505377-16.516129-16.516129-11.010753-44.043011 5.505377-60.559139 280.774194-236.731183 489.978495-231.225806 583.569892-231.225807h22.021505c165.16129 0 302.795699 132.129032 313.806452 297.290323-11.010753 170.666667-148.645161 302.795699-319.311828 302.795699z" fill="#185ABD" p-id="13289"></path><path d="M963.44086 71.569892C908.387097 27.526882 836.817204 0 754.236559 0c-88.086022 0-170.666667 38.537634-231.225806 99.096774-49.548387 49.548387-77.075269 115.612903-88.086022 187.182796-16.516129-5.505376-33.032258-5.505376-55.053763-5.505376-99.096774 0-198.193548 38.537634-269.763441 104.60215s-110.107527 165.16129-110.107527 269.763441c0 99.096774 38.537634 187.182796 104.602151 258.752688 66.064516 71.569892 159.655914 110.107527 258.752688 110.107527h5.505376c154.150538 0 319.311828-71.569892 478.967742-220.215054 16.516129-16.516129 16.516129-44.043011 5.505376-60.55914-16.516129-16.516129-44.043011-16.516129-60.559139-5.505376-148.645161 132.129032-291.784946 198.193548-429.419355 198.193548-77.075269 0-143.139785-27.526882-198.193549-82.580645s-82.580645-126.623656-82.580645-198.193548c0-77.075269 33.032258-154.150538 88.086022-203.698925 55.053763-55.053763 132.129032-82.580645 209.204301-82.580645 22.021505 0 44.043011 5.505376 60.55914 5.505376h33.032258c22.021505-5.505376 44.043011-22.021505 44.04301-44.04301 0-66.064516 22.021505-126.623656 71.569893-170.666667s104.602151-71.569892 170.666666-71.569892c55.053763 0 110.107527 16.516129 159.655914 55.053763 16.516129 16.516129 44.043011 11.010753 60.55914-5.505376 5.505376-22.021505 5.505376-49.548387-16.516129-66.064517z" fill="#185ABD" p-id="13290"></path><path d="M1172.645161 247.741935c0 44.043011-38.537634 82.580645-82.580645 77.075269-44.043011 0-82.580645-38.537634-77.075269-82.580645 0-44.043011 33.032258-77.075269 77.075269-77.075269 44.043011 0 82.580645 38.537634 82.580645 82.580645" fill="#FF3000" p-id="13291"></path></svg>