<?xml version="1.0" standalone="no"?><!DOCTYPE svg PUBLIC "-//W3C//DTD SVG 1.1//EN" "http://www.w3.org/Graphics/SVG/1.1/DTD/svg11.dtd"><svg t="1764058290404" class="icon" viewBox="0 0 1024 1024" version="1.1" xmlns="http://www.w3.org/2000/svg" p-id="5733" xmlns:xlink="http://www.w3.org/1999/xlink" width="200" height="200"><path d="M517.512215 720.828157a212.008282 212.008282 0 1 1 212.008282-212.008281 212.008282 212.008282 0 0 1-212.008282 212.008281z m0-339.21325a127.204969 127.204969 0 1 0 127.204969 127.204969 127.204969 127.204969 0 0 0-127.204969-127.204969z" fill="#00FFFF" p-id="5734"></path><path d="M538.713043 1017.639752h-42.401656a106.428157 106.428157 0 0 1-106.004141-104.732092 424.016563 424.016563 0 0 1-159.006211-92.011594A106.852174 106.852174 0 0 1 87.983437 781.462526l-21.200828-36.889441a105.580124 105.580124 0 0 1-10.600414-80.139131A103.884058 103.884058 0 0 1 103.67205 599.983437a424.016563 424.016563 0 0 1 0-184.447205 103.884058 103.884058 0 0 1-47.913872-63.602485 105.580124 105.580124 0 0 1 10.600414-80.13913L87.983437 235.753209a106.428157 106.428157 0 0 1 143.741615-39.43354 424.016563 424.016563 0 0 1 158.582194-92.011594 106.004141 106.004141 0 0 1 106.004141-104.308075h42.401656a106.004141 106.004141 0 0 1 106.004141 104.308075 426.984679 426.984679 0 0 1 159.430228 92.011594 105.580124 105.580124 0 0 1 143.317598 39.43354l21.200829 36.889441A102.187992 102.187992 0 0 1 978.418219 352.781781a103.884058 103.884058 0 0 1-47.913871 63.602484 424.016563 424.016563 0 0 1 0 184.447205 103.884058 103.884058 0 0 1 47.913871 63.602484 102.187992 102.187992 0 0 1-10.600414 80.139131l-21.200828 36.889441a106.004141 106.004141 0 0 1-143.317598 39.43354 426.984679 426.984679 0 0 1-159.430228 92.011594 106.428157 106.428157 0 0 1-105.156108 104.732092zM238.0853 727.188406a42.401656 42.401656 0 0 1 30.953209 13.56853 339.213251 339.213251 0 0 0 172.998758 100.067909 42.401656 42.401656 0 0 1 33.073292 42.401656v31.377226a21.624845 21.624845 0 0 0 21.200828 21.200828h42.401656a21.624845 21.624845 0 0 0 21.200829-21.200828v-31.377226a42.401656 42.401656 0 0 1 33.073292-42.401656 336.669151 336.669151 0 0 0 173.422774-101.763975 42.401656 42.401656 0 0 1 52.154037-8.056315l27.13706 15.688613a21.200828 21.200828 0 0 0 28.833126-7.632298l21.200829-36.889441a21.200828 21.200828 0 0 0 2.120082-16.11263 22.048861 22.048861 0 0 0-9.75238-12.720497l-26.713044-15.264596a42.401656 42.401656 0 0 1-19.080745-49.185921 346.421532 346.421532 0 0 0 0-200.559835 42.401656 42.401656 0 0 1 19.080745-49.185921l26.289027-13.56853a22.048861 22.048861 0 0 0 9.752381-12.720497 21.200828 21.200828 0 0 0-3.816149-17.808696l-21.200828-36.889441a21.200828 21.200828 0 0 0-28.833127-7.632298l-27.13706 15.688613A42.401656 42.401656 0 0 1 766.409938 278.154865a336.669151 336.669151 0 0 0-172.998758-100.067908 42.401656 42.401656 0 0 1-33.073292-42.401657v-29.681159a21.200828 21.200828 0 0 0-21.200828-21.200828h-42.401656a21.200828 21.200828 0 0 0-21.200828 21.200828v30.953209a42.401656 42.401656 0 0 1-33.073292 42.401656 339.213251 339.213251 0 0 0-173.422775 98.795859A42.401656 42.401656 0 0 1 215.188406 286.21118l-25.440994-15.688613a21.200828 21.200828 0 0 0-28.833126 7.632298l-21.200828 36.889441a21.200828 21.200828 0 0 0-2.120083 16.11263 21.624845 21.624845 0 0 0 10.176397 12.720497l25.016977 15.264596a42.401656 42.401656 0 0 1 19.504762 49.185921 337.093168 337.093168 0 0 0 0 200.559835A42.401656 42.401656 0 0 1 172.786749 658.073706l-26.289026 15.264596a21.624845 21.624845 0 0 0-10.176398 12.720497 21.200828 21.200828 0 0 0 2.120083 16.11263l21.200828 36.889441a21.624845 21.624845 0 0 0 29.257143 7.632298l26.289027-15.688613a42.401656 42.401656 0 0 1 22.896894-3.816149z" fill="#00FFFF" p-id="5735"></path></svg>