<?xml version="1.0" standalone="no"?><!DOCTYPE svg PUBLIC "-//W3C//DTD SVG 1.1//EN" "http://www.w3.org/Graphics/SVG/1.1/DTD/svg11.dtd"><svg t="1764058215682" class="icon" viewBox="0 0 1024 1024" version="1.1" xmlns="http://www.w3.org/2000/svg" p-id="23251" xmlns:xlink="http://www.w3.org/1999/xlink" width="200" height="200"><path d="M834.951529 845.281882l96.978824-586.992941c8.131765-49.694118-41.562353-88.847059-88.244706-69.270588l-729.449412 307.2c-50.898824 21.383529-53.609412 94.870588 0 117.157647 39.755294 16.564706 88.244706 29.816471 140.348236 38.550588 28.611765 4.818824 52.705882 0 98.785882-28.009412 52.103529-31.623529 209.618824-144.263529 308.103529-218.654117 39.454118-29.816471 54.814118-11.143529 21.082353 21.383529-85.232941 82.823529-234.616471 221.665882-243.952941 258.710588-10.842353 43.369412 78.004706 103.905882 106.917647 122.88 58.127059 37.948235 122.578824 74.390588 165.948235 97.882353 52.103529 28.310588 114.145882-4.216471 123.482353-60.837647z" fill="#2A57FA" p-id="23252"></path><path d="M834.951529 845.281882l17.950118-108.15247c-24.184471-8.041412-44.784941-11.836235-61.801412-11.414588-61.44 1.505882-85.925647 7.047529-160.37647 29.063529-52.374588 25.690353-79.811765 56.922353-70.595765 62.945882 58.127059 37.948235 107.971765 64.903529 151.341176 88.395294 52.103529 28.310588 114.145882-4.216471 123.482353-60.837647z" fill="#32F9F9" p-id="23253"></path></svg>